#!OML:ASF F:\VICON\USERDATA\INSTALL\rory3\rory3.ASF
:FULLY-SPECIFIED
:DEGREES
31
root 0.73204 18.2931 -15.9639 4.39525 3.06473 -4.5861
lowerback 11.8757 3.16723 5.34261
upperback -0.872506 5.08706 1.41547
thorax -7.25825 2.29864 -2.39717
lowerneck -17.4043 -4.64967 -1.29903
upperneck 7.93155 -6.34147 3.39347
head 5.35334 -2.88157 0.671883
rclavicle 2.5842e-014 -3.18055e-014
rhumerus -33.5496 17.5278 -99.0746
rradius 106.209
rwrist -7.93929
rhand -22.9933 37.9499
rfingers 7.12502
rthumb 3.4496 7.99806
lclavicle 2.5842e-014 -3.18055e-014
lhumerus -68.083 -3.37427 96.0277
lradius 108.685
lwrist 24.1798
lhand -30.0995 2.62331
lfingers 7.12502
lthumb -3.41356 32.5757
rfemur 6.80338 6.01343 32.7975
rtibia 56.3212
rfoot 20.9912 -6.79672
rtoes 10.1659
lfemur -29.572 -2.75389 -18.4037
ltibia 20.7865
lfoot 3.31762 -12.4925
ltoes -16.4356
32
root 0.721749 18.1906 -15.4925 4.10027 3.26263 -3.97399
lowerback 12.1661 3.073 4.69109
upperback -0.884182 4.86699 1.14879
thorax -7.47965 2.2037 -2.30108
lowerneck -16.9919 -4.67641 -1.19888
upperneck 7.78551 -6.41041 3.49615
head 5.24378 -2.91211 0.691817
rclavicle 2.15681e-014 1.5704e-014
rhumerus -34.0107 17.1921 -99.6616
rradius 105.518
rwrist -7.15602
rhand -23.2583 37.0127
rfingers 7.12502
rthumb 3.19363 7.0569
lclavicle 2.15681e-014 1.5704e-014
lhumerus -67.7291 -4.07976 96.3329
lradius 108.846
lwrist 24.0853
lhand -30.3983 2.46181
lfingers 7.12502
lthumb -3.70211 32.4094
rfemur 5.82125 5.56885 31.9596
rtibia 59.6517
rfoot 19.7679 -7.26025
rtoes 13.9646
lfemur -29.2583 -2.16095 -19.4846
ltibia 22.1488
lfoot 3.17683 -12.975
ltoes -6.50505
33
root 0.7122 18.0931 -15.0271 3.8117 3.4629 -3.59928
lowerback 12.3425 2.95048 4.23394
upperback -0.752917 4.63077 1.01498
thorax -7.47778 2.10573 -2.15435
lowerneck -16.8605 -4.69372 -1.18643
upperneck 7.58332 -6.43985 3.58344
head 5.16266 -2.92467 0.719511
rclavicle 8.4732e-015 2.20651e-014
rhumerus -34.1156 16.9862 -99.9388
rradius 104.816
rwrist -7.36535
rhand -23.4136 36.1668
rfingers 7.12502
rthumb 3.04365 6.20878
lclavicle 8.4732e-015 2.20651e-014
lhumerus -66.8279 -4.73573 96.7413
lradius 108.84
lwrist 24.172
lhand -29.3507 2.15267
lfingers 7.12502
lthumb -2.69038 32.1154
rfemur 4.68227 5.02783 31.2494
rtibia 62.9147
rfoot 18.1113 -7.77441
rtoes 18.4295
lfemur -29.1296 -1.51382 -20.2876
ltibia 24.6887
lfoot 1.16019 -13.6871
ltoes 1.69296
34
root 0.702165 17.9689 -14.5749 3.31588 3.46377 -3.4199
lowerback 12.8826 2.81958 3.861
upperback -0.608989 4.42038 0.986255
thorax -7.66737 2.01268 -1.96871
lowerneck -16.7447 -4.62308 -1.30032
upperneck 7.47512 -6.34042 3.77977
head 5.11871 -2.86872 0.811696
rclavicle 2.92213e-014 2.60408e-014
rhumerus -34.3308 16.9173 -100.218
rradius 103.961
rwrist -8.12815
rhand -23.3936 35.9682
rfingers 7.12502
rthumb 3.06303 6.01046
lclavicle 2.92213e-014 2.60408e-014
lhumerus -65.7982 -5.28762 97.1354
lradius 108.776
lwrist 24.4476
lhand -28.7029 2.01497
lfingers 7.12502
lthumb -2.06475 31.9847
rfemur 3.52261 4.6032 30.6765
rtibia 66.2151
rfoot 16.7614 -8.13723
rtoes 20.1358
lfemur -29.0786 -0.925118 -20.7693
ltibia 27.799
lfoot -2.77833 -13.0331
ltoes 2.19119
35
root 0.694048 17.8432 -14.1238 2.90699 3.58953 -3.48792
lowerback 13.2764 2.61179 3.72348
upperback -0.412996 4.14031 1.06078
thorax -7.71027 1.88388 -1.778
lowerneck -16.8637 -4.54366 -1.39109
upperneck 7.47615 -6.2275 3.89732
head 5.14229 -2.8062 0.870981
rclavicle -1.3741e-014 3.37934e-015
rhumerus -34.4288 16.9613 -100.482
rradius 102.946
rwrist -8.59922
rhand -23.4804 35.7112
rfingers 7.12502
rthumb 2.9792 5.75226
lclavicle -1.3741e-014 3.37934e-015
lhumerus -64.6534 -5.90697 97.5998
lradius 108.861
lwrist 24.6866
lhand -28.9362 2.50273
lfingers 7.12502
lthumb -2.29014 32.4702
rfemur 2.16116 3.95752 30.3168
rtibia 69.381
rfoot 15.6925 -8.10878
rtoes 19.0626
lfemur -28.7289 -0.243864 -21.0789
ltibia 31.4141
lfoot -7.25575 -11.9574
ltoes -0.66834
36
root 0.702465 17.729 -13.6739 2.64558 4.26646 -3.04322
lowerback 13.4951 2.223 3.35903
upperback -0.159048 3.56155 0.986897
thorax -7.60679 1.62057 -1.54652
lowerneck -17.2258 -4.53841 -1.4224
upperneck 7.46663 -6.20212 3.83195
head 5.19476 -2.79463 0.851032
rclavicle -8.77137e-015 -2.50469e-014
rhumerus -34.2684 17.3028 -100.708
rradius 101.782
rwrist -8.31266
rhand -24.2396 35.4136
rfingers 7.12502
rthumb 2.24592 5.44566
lclavicle -8.77137e-015 -2.50469e-014
lhumerus -63.2842 -6.56286 98.1784
lradius 108.859
lwrist 24.5704
lhand -29.5614 2.29567
lfingers 7.12502
lthumb -2.8939 32.2558
rfemur 0.798256 2.56065 29.2685
rtibia 72.4019
rfoot 14.3359 -7.74193
rtoes 17.4219
lfemur -28.4536 -0.500965 -21.8449
ltibia 34.8735
lfoot -10.5072 -11.6697
ltoes 0.00239144
37
root 0.722642 17.6225 -13.2303 2.49226 5.7825 -2.19909
lowerback 13.8165 1.57825 2.98956
upperback -0.00858915 2.6323 0.691269
thorax -7.66999 1.17767 -1.48224
lowerneck -17.6663 -4.56736 -1.2997
upperneck 7.54544 -6.25869 3.75329
head 5.28443 -2.81687 0.792154
rclavicle 1.15047e-014 -1.33186e-014
rhumerus -34.999 16.5257 -101.107
rradius 101.028
rwrist -7.39155
rhand -24.7351 38.2554
rfingers 7.12502
rthumb 1.76743 8.283
lclavicle 1.15047e-014 -1.33186e-014
lhumerus -61.7805 -7.5544 98.6515
lradius 108.705
lwrist 24.5699
lhand -30.1658 1.39327
lfingers 7.12502
lthumb -3.47757 31.3447
rfemur -0.762297 0.311344 27.7014
rtibia 75.3828
rfoot 12.542 -7.48803
rtoes 17.6411
lfemur -28.5269 -1.97889 -22.8437
ltibia 38.2302
lfoot -12.4003 -10.7036
ltoes 3.59375
38
root 0.72141 17.5388 -12.8079 2.14502 5.05949 -1.23332
lowerback 14.863 1.72751 1.82475
upperback 0.112935 2.6358 0.339461
thorax -8.16295 1.20786 -1.23773
lowerneck -18.1966 -4.50877 -1.12908
upperneck 7.83425 -6.24135 3.85227
head 5.45831 -2.78318 0.784547
rclavicle 5.01931e-015 2.46493e-014
rhumerus -35.4557 15.7194 -101.347
rradius 100.56
rwrist -8.50698
rhand -23.7085 42.5046
rfingers 7.12502
rthumb 2.75885 12.5427
lclavicle 5.01931e-015 2.46493e-014
lhumerus -60.1009 -8.65295 98.9408
lradius 108.463
lwrist 24.8717
lhand -30.4563 0.825145
lfingers 7.12502
lthumb -3.75813 30.7718
rfemur -2.63538 0.207103 25.8655
rtibia 78.603
rfoot 10.782 -7.32212
rtoes 17.0602
lfemur -27.9555 -1.82269 -23.9087
ltibia 41.0193
lfoot -14.2191 -8.15438
ltoes 5.8143
39
root 0.718958 17.4273 -12.4018 2.52124 5.20473 -0.0286173
lowerback 15.1247 1.55642 0.594416
upperback 0.111204 2.1679 -0.0235916
thorax -8.35718 1.02109 -0.8391
lowerneck -18.8342 -4.43736 -1.2553
upperneck 8.01532 -6.14773 4.07083
head 5.6266 -2.71212 0.869065
rclavicle -3.62782e-014 1.11319e-014
rhumerus -35.693 15.2398 -101.507
rradius 100.219
rwrist -11.3056
rhand -21.9296 41.4527
rfingers 7.12502
rthumb 4.47677 11.52
lclavicle -3.62782e-014 1.11319e-014
lhumerus -58.012 -9.59255 99.1909
lradius 108.085
lwrist 25.4417
lhand -30.2144 0.971912
lfingers 7.12502
lthumb -3.52451 30.9225
rfemur -5.56032 -0.752167 23.7875
rtibia 81.9405
rfoot 9.09215 -7.08032
rtoes 15.0849
lfemur -27.8583 -2.31027 -25.2694
ltibia 43.2694
lfoot -16.2275 -6.54256
ltoes 3.32853
40
root 0.666207 17.3078 -12.0247 2.39104 2.3813 1.13561
lowerback 16.2079 2.59499 -1.86461
upperback 0.0922703 3.06506 -0.252495
thorax -9.09387 1.54538 0.0551071
lowerneck -19.1003 -4.43151 -1.43798
upperneck 7.85875 -6.11447 4.28994
head 5.63136 -2.68322 0.967436
rclavicle 2.98674e-014 -3.8763e-015
rhumerus -36.2585 15.5741 -102.07
rradius 98.2472
rwrist -9.8552
rhand -23.9839 35.0794
rfingers 7.12502
rthumb 2.49295 5.1142
lclavicle 2.98674e-014 -3.8763e-015
lhumerus -55.7399 -10.7511 99.3834
lradius 107.452
lwrist 26.2388
lhand -30.4906 1.71232
lfingers 7.12502
lthumb -3.79119 31.6583
rfemur -8.65308 1.17424 21.8643
rtibia 85.3868
rfoot 8.12138 -6.80131
rtoes 13.6084
lfemur -26.8833 -0.189472 -26.5182
ltibia 45.0305
lfoot -18.4933 -4.74588
ltoes -2.83361
41
root 0.66595 17.23 -11.6196 2.60928 2.40094 2.0037
lowerback 16.4672 2.48777 -2.61352
upperback 0.0811665 2.73944 -0.607078
thorax -9.26433 1.41374 0.162692
lowerneck -19.1175 -4.40353 -1.38792
upperneck 7.42591 -6.08941 4.44746
head 5.49994 -2.66446 1.01607
rclavicle 1.21507e-014 5.11871e-015
rhumerus -36.8384 15.3542 -102.394
rradius 97.1187
rwrist -9.6198
rhand -24.9252 34.0594
rfingers 7.12502
rthumb 1.58384 4.08558
lclavicle 1.21507e-014 5.11871e-015
lhumerus -53.2645 -12.2097 99.3515
lradius 106.715
lwrist 27.0782
lhand -30.5713 1.27542
lfingers 7.12502
lthumb -3.86915 31.22
rfemur -11.6905 0.207637 20.1974
rtibia 88.0674
rfoot 6.75591 -6.45005
rtoes 13.5782
lfemur -26.1959 -0.426408 -27.3865
ltibia 46.3308
lfoot -20.0542 -3.7946
ltoes -0.17005
42
root 0.671008 17.1594 -11.2089 2.82426 2.136 2.12007
lowerback 16.4019 2.36752 -2.62208
upperback 0.18136 2.57061 -0.730296
thorax -9.10726 1.32916 0.0815307
lowerneck -19.1908 -4.39319 -1.30452
upperneck 7.04598 -6.07371 4.41381
head 5.38646 -2.66278 0.996651
rclavicle 3.87382e-014 -2.08227e-014
rhumerus -37.7342 14.6002 -102.571
rradius 96.5522
rwrist -9.44857
rhand -24.2008 33.3505
rfingers 7.12502
rthumb 2.28346 3.38295
lclavicle 3.87382e-014 -2.08227e-014
lhumerus -50.6124 -13.5722 99.294
lradius 106.131
lwrist 27.346
lhand -31.0222 1.69591
lfingers 7.12502
lthumb -4.30458 31.6322
rfemur -14.7104 -0.28037 19.631
rtibia 90.2411
rfoot 5.37305 -6.57531
rtoes 14.4309
lfemur -25.5033 -0.382868 -27.4594
ltibia 47.1593
lfoot -21.3771 -3.21813
ltoes -2.64091
43
root 0.677111 17.1172 -10.7993 3.01537 1.72684 1.96893
lowerback 16.3079 2.30888 -2.42561
upperback 0.342425 2.53277 -0.760519
thorax -8.86657 1.30019 -0.0441862
lowerneck -19.5259 -4.40431 -1.11923
upperneck 6.91691 -6.10427 4.23151
head 5.38633 -2.6837 0.902587
rclavicle -1.9512e-014 -2.21148e-015
rhumerus -38.5387 13.6464 -102.497
rradius 96.0074
rwrist -9.2138
rhand -22.7902 34.0345
rfingers 7.12502
rthumb 3.64566 4.08598
lclavicle -1.9512e-014 -2.21148e-015
lhumerus -48.0882 -14.921 99.1662
lradius 105.884
lwrist 27.1009
lhand -32.3497 3.05895
lfingers 7.12502
lthumb -5.58638 32.9653
rfemur -17.7456 -0.575795 19.509
rtibia 91.8353
rfoot 4.18233 -6.71954
rtoes 15.4859
lfemur -24.2404 -0.157484 -27.2255
ltibia 47.7628
lfoot -23.3891 -2.98737
ltoes 0.176317
